<?xml version="1.0" encoding="UTF-8"?><!DOCTYPE svg PUBLIC "-//W3C//DTD SVG 1.1//EN" "http://www.w3.org/Graphics/SVG/1.1/DTD/svg11.dtd"><svg xmlns="http://www.w3.org/2000/svg"><symbol id="afternoon" viewBox="0 0 400 400"><title>afternoon</title><path d="M198.49 116.23a82.11 82.11 0 1 0 82 82.11 82.15 82.15 0 0 0-82-82.11zm0 140.77a58.67 58.67 0 1 1 58.59-58.66A58.68 58.68 0 0 1 198.49 257zM386 198.34a11.87 11.87 0 0 0-5.2-9.75l-60.72-40.65 14.21-71.7a11.72 11.72 0 0 0-3.22-10.55 11.53 11.53 0 0 0-10.55-3.22l-71.64 14.21-40.65-60.79c-4.39-6.52-15.09-6.52-19.48 0L148.1 76.68 76.47 62.4a11.51 11.51 0 0 0-10.55 3.22 11.77 11.77 0 0 0-3.22 10.55l14.21 71.77-60.72 40.65a11.73 11.73 0 0 0 0 19.49l60.72 40.65-14.21 71.7A11.72 11.72 0 0 0 65.92 331a11.51 11.51 0 0 0 10.55 3.22L148.1 320l40.65 60.79a11.67 11.67 0 0 0 9.74 5.2 11.87 11.87 0 0 0 9.74-5.2L248.88 320l71.63 14.21a11.22 11.22 0 0 0 10.55-3.21 11.78 11.78 0 0 0 3.22-10.55l-14.21-71.7 60.72-40.65a11.87 11.87 0 0 0 5.2-9.74zm-85.47 35.22a11.77 11.77 0 0 0-5 12l12.3 62.18-62.11-12.31a11.4 11.4 0 0 0-12 5l-35.23 52.74-35.23-52.66a11.74 11.74 0 0 0-12-5l-62.11 12.3 12.3-62.18a11.76 11.76 0 0 0-5-12L43.8 198.41l52.66-35.3a11.77 11.77 0 0 0 5-12l-12.32-62.2 62.11 12.31a11.56 11.56 0 0 0 12-5l35.24-52.72 35.23 52.74a11.56 11.56 0 0 0 12 5l62.11-12.31-12.3 62.18a11.77 11.77 0 0 0 5 12l52.66 35.3-52.66 35.15z"/></symbol><symbol id="alarm" viewBox="0 0 400 400"><title>alarm</title><path d="M200 375a25 25 0 0 1-25-25h-25a50 50 0 1 0 100 0h-25a25 25 0 0 1-25 25zm163.58-113.43C341.74 240.77 325 219 325 145.23c0-62.18-49.52-112.89-112.53-119V12.5a12.5 12.5 0 0 0-25 0v13.72C124.49 32.35 75 83.05 75 145.23c0 73.77-16.74 95.54-38.59 116.34a36.36 36.36 0 0 0-8.78 40A37.27 37.27 0 0 0 62.5 325h275a37.3 37.3 0 0 0 34.88-23.41 36.36 36.36 0 0 0-8.8-40.02zM337.5 300h-275c-11.12 0-16.67-12.87-8.84-20.32 27.23-25.93 46.31-55 46.31-134.44C100 92.6 144.71 50 200 50s100 42.59 100 95.23c0 79.18 18.92 108.36 46.31 134.44 7.89 7.49 2.26 20.33-8.81 20.33z"/></symbol></svg>