<svg id="a8f9c399-b22c-47f2-a47f-b854be2626c8" data-name="Laag 1" xmlns="http://www.w3.org/2000/svg" viewBox="0 0 400 400"><title>afternoon</title><path d="M198.49,116.23a82.11,82.11,0,1,0,82,82.11,82.15,82.15,0,0,0-82-82.11Zm0,140.77a58.67,58.67,0,1,1,58.59-58.66A58.68,58.68,0,0,1,198.49,257ZM386,198.34a11.87,11.87,0,0,0-5.2-9.75l-60.72-40.65,14.21-71.7a11.72,11.72,0,0,0-3.22-10.55,11.53,11.53,0,0,0-10.55-3.22L248.88,76.68,208.23,15.89c-4.39-6.52-15.09-6.52-19.48,0L148.1,76.68,76.47,62.4a11.51,11.51,0,0,0-10.55,3.22A11.77,11.77,0,0,0,62.7,76.17l14.21,71.77L16.19,188.59a11.73,11.73,0,0,0,0,19.49l60.72,40.65L62.7,320.43A11.72,11.72,0,0,0,65.92,331a11.51,11.51,0,0,0,10.55,3.22L148.1,320l40.65,60.79a11.67,11.67,0,0,0,9.74,5.2,11.87,11.87,0,0,0,9.74-5.2L248.88,320l71.63,14.21A11.22,11.22,0,0,0,331.06,331a11.78,11.78,0,0,0,3.22-10.55l-14.21-71.7,60.72-40.65a11.87,11.87,0,0,0,5.2-9.74Zm-85.47,35.22a11.77,11.77,0,0,0-5,12l12.3,62.18-62.11-12.31a11.4,11.4,0,0,0-12,5l-35.23,52.74-35.23-52.66a11.74,11.74,0,0,0-12-5l-62.11,12.3,12.3-62.18a11.76,11.76,0,0,0-5-12L43.8,198.41l52.66-35.3a11.77,11.77,0,0,0,5-12L89.14,88.91l62.11,12.31a11.56,11.56,0,0,0,12-5L198.49,43.5l35.23,52.74a11.56,11.56,0,0,0,12,5l62.11-12.31-12.3,62.18a11.77,11.77,0,0,0,5,12l52.66,35.3-52.66,35.15Z"/></svg>