<svg id="bceb0c79-51e9-4009-9efb-f86a6c59146a" data-name="Laag 1" xmlns="http://www.w3.org/2000/svg" viewBox="0 0 400 400"><title>alarm</title><path d="M200,375a25,25,0,0,1-25-25H150a50,50,0,1,0,100,0H225A25,25,0,0,1,200,375ZM363.58,261.57C341.74,240.77,325,219,325,145.23c0-62.18-49.52-112.89-112.53-119V12.5a12.5,12.5,0,0,0-25,0V26.22C124.49,32.35,75,83.05,75,145.23,75,219,58.26,240.77,36.41,261.57a36.36,36.36,0,0,0-8.78,40A37.27,37.27,0,0,0,62.5,325h275a37.3,37.3,0,0,0,34.88-23.41A36.36,36.36,0,0,0,363.58,261.57ZM337.5,300H62.5c-11.12,0-16.67-12.87-8.84-20.32,27.23-25.93,46.31-55,46.31-134.44C100,92.6,144.71,50,200,50s100,42.59,100,95.23c0,79.18,18.92,108.36,46.31,134.44C354.2,287.16,348.57,300,337.5,300Z"/></svg>